<svg width="24" height="24" viewBox="0 0 24 24" fill="none" xmlns="http://www.w3.org/2000/svg">
<path d="M5 10.9989C4.44771 10.9989 4 11.4466 4 11.9989C4 12.5512 4.44771 12.9989 5 12.9989L5 10.9989ZM19 12.9989C19.5523 12.9989 20 12.5512 20 11.9989C20 11.4466 19.5523 10.9989 19 10.9989L19 12.9989ZM5 12.9989L19 12.9989L19 10.9989L5 10.9989L5 12.9989Z" fill="#0088CC"/>
<path d="M13.7071 5.29179C13.3166 4.90127 12.6834 4.90127 12.2929 5.29179C11.9024 5.68232 11.9024 6.31548 12.2929 6.70601L13.7071 5.29179ZM19 11.9989L19.7071 12.706C19.8946 12.5185 20 12.2641 20 11.9989C20 11.7337 19.8946 11.4793 19.7071 11.2918L19 11.9989ZM12.2929 17.2918C11.9024 17.6823 11.9024 18.3155 12.2929 18.706C12.6834 19.0965 13.3166 19.0965 13.7071 18.706L12.2929 17.2918ZM12.2929 6.70601L18.2929 12.706L19.7071 11.2918L13.7071 5.29179L12.2929 6.70601ZM18.2929 11.2918L12.2929 17.2918L13.7071 18.706L19.7071 12.706L18.2929 11.2918Z" fill="#0088CC"/>
</svg>
