<svg width="24" height="24" viewBox="0 0 24 24" fill="none" xmlns="http://www.w3.org/2000/svg">
<path d="M20 8H19V7C19 5.9 18.1 5 17 5H5C3.9 5 3 5.9 3 7V17C3 18.1 3.9 19 5 19H17C18.1 19 19 18.1 19 17V16H20C20.6 16 21 15.6 21 15V9C21 8.4 20.6 8 20 8ZM17 17H5V7H17V8H14C13.7 8 13.5 8.1 13.3 8.3L10.3 11.3C9.9 11.7 9.9 12.3 10.3 12.7L13.3 15.7C13.5 15.9 13.7 16 14 16H17V17ZM19 14H14.4L12.4 12L14.4 10H19V14Z" fill="#303757"/>
<path d="M15 13C15.5523 13 16 12.5523 16 12C16 11.4477 15.5523 11 15 11C14.4477 11 14 11.4477 14 12C14 12.5523 14.4477 13 15 13Z" fill="#303757"/>
</svg>
